<svg width="12" height="9" viewBox="0 0 12 9" fill="none" xmlns="http://www.w3.org/2000/svg">
<path d="M6.3489 4.89459L4.54905 7.97714L2.74921 4.89459H6.3489ZM6.83108 4.61908H2.26509L4.54905 8.52238L6.83108 4.61908Z" fill="#263238"/>
<path d="M9.47815 1.0606L11.278 4.14316H7.6783L9.47815 1.0606ZM9.47815 0.509598L7.19418 4.41288H11.7621L9.47815 0.509598Z" fill="#263238"/>
<path d="M0.0767822 0.509598L1.99181 3.96206L4.08446 0.59629L0.0767822 0.509598Z" fill="#4CAF4F"/>
<path d="M4.5491 0.812042L6.55783 4.24524H2.53647L4.5491 0.812042Z" fill="#4CAF4F"/>
<path d="M7.07513 4.99478L9.0858 8.5224H4.9688L7.01265 4.99478H7.07513Z" fill="#4CAF4F"/>
<path d="M7.51043 4.78091L9.47815 8.25457L11.4732 4.78091H7.51043Z" fill="#4CAF4F"/>
</svg>
