<svg width="38" height="7" viewBox="0 0 38 7" fill="none" xmlns="http://www.w3.org/2000/svg">
<path d="M6.11968 0.0668335V6.86557H4.87812L1.92027 2.58648H1.87047V6.86557H0.433043V0.0668335H1.69453L4.62914 4.3426H4.68889V0.0668335H6.11968Z" fill="#263238"/>
<path d="M9.60453 6.96516C9.08002 6.96516 8.62854 6.85893 8.2501 6.64647C7.87386 6.4318 7.58394 6.1286 7.38034 5.73687C7.17673 5.34294 7.07492 4.87707 7.07492 4.33928C7.07492 3.81477 7.17673 3.35444 7.38034 2.95829C7.58394 2.56214 7.87054 2.25341 8.24014 2.03209C8.61194 1.81078 9.04793 1.70012 9.5481 1.70012C9.88449 1.70012 10.1977 1.75435 10.4876 1.86279C10.7797 1.96902 11.0342 2.12947 11.2511 2.34414C11.4702 2.55882 11.6406 2.82882 11.7623 3.15415C11.8841 3.47727 11.9449 3.85571 11.9449 4.28949V4.67789H7.63927V3.80149H10.6137C10.6137 3.59788 10.5695 3.41751 10.4809 3.26038C10.3924 3.10325 10.2696 2.98042 10.1124 2.89189C9.95753 2.80116 9.77716 2.75579 9.57133 2.75579C9.35666 2.75579 9.16633 2.80558 9.00035 2.90517C8.83658 3.00255 8.70821 3.13423 8.61526 3.30022C8.52231 3.46399 8.47473 3.64657 8.47252 3.84797V4.68121C8.47252 4.93351 8.51899 5.1515 8.61194 5.33519C8.70711 5.51888 8.841 5.66052 9.01363 5.76011C9.18625 5.8597 9.39096 5.9095 9.62777 5.9095C9.7849 5.9095 9.92876 5.88737 10.0593 5.8431C10.1899 5.79884 10.3017 5.73245 10.3946 5.64392C10.4876 5.5554 10.5584 5.44695 10.6071 5.31859L11.915 5.4049C11.8486 5.71917 11.7125 5.9936 11.5067 6.22819C11.3031 6.46057 11.0397 6.64204 10.7166 6.77262C10.3957 6.90098 10.025 6.96516 9.60453 6.96516Z" fill="#263238"/>
<path d="M13.9583 1.76652L14.8945 3.54919L15.8539 1.76652H17.3046L15.8273 4.31604L17.3444 6.86557H15.9003L14.8945 5.10281L13.9052 6.86557H12.4445L13.9583 4.31604L12.4976 1.76652H13.9583Z" fill="#263238"/>
<path d="M20.2657 6.96516C19.7434 6.96516 19.2942 6.8545 18.9179 6.63319C18.5439 6.40967 18.2562 6.09983 18.0548 5.70368C17.8556 5.30753 17.756 4.85162 17.756 4.33596C17.756 3.81366 17.8567 3.35555 18.0581 2.96161C18.2617 2.56546 18.5506 2.25673 18.9246 2.03541C19.2986 1.81189 19.7434 1.70012 20.2591 1.70012C20.7039 1.70012 21.0934 1.7809 21.4276 1.94246C21.7618 2.10402 22.0263 2.33087 22.221 2.623C22.4158 2.91513 22.5231 3.25817 22.543 3.65211H21.2085C21.1709 3.39759 21.0713 3.19288 20.9098 3.03796C20.7504 2.88083 20.5413 2.80226 20.2823 2.80226C20.0632 2.80226 19.8718 2.86202 19.708 2.98153C19.5465 3.09882 19.4203 3.27034 19.3296 3.49608C19.2388 3.72182 19.1935 3.99514 19.1935 4.31604C19.1935 4.64137 19.2377 4.91802 19.3263 5.14597C19.417 5.37392 19.5443 5.54765 19.708 5.66716C19.8718 5.78667 20.0632 5.84642 20.2823 5.84642C20.4439 5.84642 20.5889 5.81323 20.7172 5.74683C20.8478 5.68044 20.9551 5.58417 21.0392 5.45802C21.1255 5.32966 21.182 5.17585 21.2085 4.99658H22.543C22.5209 5.38609 22.4147 5.72913 22.2244 6.02569C22.0362 6.32003 21.7762 6.5502 21.4442 6.71618C21.1123 6.88217 20.7194 6.96516 20.2657 6.96516Z" fill="#263238"/>
<path d="M25.7723 6.96516C25.2478 6.96516 24.7963 6.85893 24.4178 6.64647C24.0416 6.4318 23.7517 6.1286 23.5481 5.73687C23.3445 5.34294 23.2427 4.87707 23.2427 4.33928C23.2427 3.81477 23.3445 3.35444 23.5481 2.95829C23.7517 2.56214 24.0383 2.25341 24.4079 2.03209C24.7797 1.81078 25.2157 1.70012 25.7158 1.70012C26.0522 1.70012 26.3654 1.75435 26.6553 1.86279C26.9475 1.96902 27.202 2.12947 27.4188 2.34414C27.6379 2.55882 27.8084 2.82882 27.9301 3.15415C28.0518 3.47727 28.1127 3.85571 28.1127 4.28949V4.67789H23.807V3.80149H26.7815C26.7815 3.59788 26.7372 3.41751 26.6487 3.26038C26.5602 3.10325 26.4373 2.98042 26.2802 2.89189C26.1253 2.80116 25.9449 2.75579 25.7391 2.75579C25.5244 2.75579 25.3341 2.80558 25.1681 2.90517C25.0043 3.00255 24.876 3.13423 24.783 3.30022C24.6901 3.46399 24.6425 3.64657 24.6403 3.84797V4.68121C24.6403 4.93351 24.6867 5.1515 24.7797 5.33519C24.8749 5.51888 25.0087 5.66052 25.1814 5.76011C25.354 5.8597 25.5587 5.9095 25.7955 5.9095C25.9526 5.9095 26.0965 5.88737 26.2271 5.8431C26.3577 5.79884 26.4694 5.73245 26.5624 5.64392C26.6553 5.5554 26.7261 5.44695 26.7748 5.31859L28.0828 5.4049C28.0164 5.71917 27.8803 5.9936 27.6745 6.22819C27.4709 6.46057 27.2075 6.64204 26.8844 6.77262C26.5635 6.90098 26.1928 6.96516 25.7723 6.96516Z" fill="#263238"/>
<path d="M30.4497 3.91768V6.86557H29.0355V1.76652H30.3833V2.66616H30.4431C30.556 2.3696 30.7452 2.135 31.0108 1.96238C31.2763 1.78754 31.5983 1.70012 31.9768 1.70012C32.3309 1.70012 32.6396 1.77758 32.903 1.9325C33.1663 2.08742 33.3711 2.30873 33.5171 2.59644C33.6632 2.88194 33.7362 3.22276 33.7362 3.61891V6.86557H32.322V3.8712C32.3243 3.55915 32.2446 3.31571 32.083 3.14087C31.9215 2.96382 31.699 2.8753 31.4158 2.8753C31.2254 2.8753 31.0572 2.91624 30.9112 2.99812C30.7673 3.08001 30.6544 3.19952 30.5726 3.35665C30.4929 3.51157 30.4519 3.69858 30.4497 3.91768Z" fill="#263238"/>
<path d="M37.563 1.76652V2.82882H34.4923V1.76652H37.563ZM35.1894 0.54487H36.6036V5.29867C36.6036 5.42925 36.6235 5.53105 36.6634 5.60409C36.7032 5.67491 36.7585 5.7247 36.8294 5.75347C36.9024 5.78224 36.9865 5.79663 37.0817 5.79663C37.148 5.79663 37.2144 5.7911 37.2808 5.78003C37.3472 5.76675 37.3981 5.75679 37.4335 5.75015L37.656 6.8025C37.5851 6.82463 37.4855 6.85008 37.3572 6.87885C37.2288 6.90983 37.0728 6.92865 36.8891 6.93528C36.5483 6.94856 36.2495 6.90319 35.9928 6.79918C35.7383 6.69516 35.5402 6.5336 35.3986 6.3145C35.2569 6.0954 35.1872 5.81876 35.1894 5.48458V0.54487Z" fill="#263238"/>
</svg>
